<?xml version="1.0" encoding="utf-8"?>
<!-- Generator: Adobe Illustrator 22.0.0, SVG Export Plug-In . SVG Version: 6.00 Build 0)  -->
<svg version="1.1" id="Capa_1" xmlns="http://www.w3.org/2000/svg" xmlns:xlink="http://www.w3.org/1999/xlink" x="0px" y="0px"
	 viewBox="0 0 512 512" style="enable-background:new 0 0 512 512;" xml:space="preserve">
<style type="text/css">
	.st0{fill:#282C34;}
</style>
<g>
	<g>
		<g>
			<path class="st0" d="M511.9,156.2c0.1-11.6-6.4-21.5-15.8-26.5c0-0.1,0-0.1,0.1-0.2c-1.7-0.8-3.5-2.1-4.8-2.6
				c-0.4-0.2-1.3-0.3-2.1-0.6c-0.7,0-1.4,0-2.1,0c-1.2,0-2.4,0-3.5,0c0.2,0-1.4,0-1.5,0c0,0,0,0,0,0c-0.7,0-1.5,0-2.2,0
				c-1.2,0-2.4,0-3.5,0c0.2,0-1.1,0-1.4,0h-38.4c-8.9,0.5-17.8,0.5-26.8-0.1c-0.9,0-2.3,0-3.6,0c0,0,0,0.1,0,0.1c0,0-1.3,0-1.5,0
				c-1.2,0-2.4,0-3.5,0c-0.1,0-0.3,0-0.4,0c0,0,0,0,0,0H294.5c0,0,0,0,0,0c-1.5,0-3.4,0-4.9,0c-1,0.1-9.9,0-9.9,0c0,0,0,0,0,0
				c-0.5,0-5,0.1-5,0c0,0,0,0,0,0c-0.5,0-0.9,0-1.4,0c0,0,0,0,0,0c0,0,0,0,0,0c-1.6,0-3.1,0-4.1,0H149.7v0c0,0,0,0,0,0
				c-0.6,0-1.2,0-1.9,0c-0.6,0-1.3,0-1.9,0c-1.2,0-2.4,0-3.5,0c0.2,0-1.4,0-1.5,0l0,0c0,0,0,0,0,0c-0.4,0-0.9,0-1.3,0
				c-2.3,0-9.3,0-9.3,0c0,0,0,0,0,0c-0.6,0-1.2,0-1.7,0h-15.2c0,0,0,0,0-0.1c-0.2,0-0.5,0-0.5,0c-1.2,0-2.4,0-3.5,0
				c-0.6,0-1.3,0-1.9,0c0,0,0,0,0,0.1c0,0-4.6,0-5,0c-0.1,0-0.4,0-0.8,0c-0.1,0.1-4.6,0-5,0c-0.2,0-1.9,0-3.3,0c0,0,0,0,0,0.1h-8.3
				c0,0,0,0,0,0c-1.2,0-4.1,0.1-4.4,0.1c-0.3,0-3.8,0.1-4.7,0c-2.6,0-5.3,0-5.3,0v0c-2.2,0-4.7,0.1-5.7,0c0,0,0,0,0,0h-8.3
				c-1.2,0-5.6,0-8,0c0,0,0,0,0,0c0,0,0,0,0,0c-0.3,0-0.5,0-0.7,0c-0.3,0-0.7,0-0.7,0c-1.2,0-2.4,0-3.5,0c-0.9,0-1.9,0-2.8,0
				c-0.3,0-0.6,0-0.8,0c-0.2,0-0.8,0-1.1,0c-0.3,0-0.5,0-0.8,0c-1.2,0-2.4,0-3.5,0c0.2,0-1.4,0-1.5,0c0,0,0,0,0,0c-1,0-2.1,0-3.1,0
				c-0.8,0-1.6,0-2.4,0C12.1,127.5,0,140.3,0,156v40.5c0,7.6,2.8,14.5,7.5,19.7C2.8,221.4,0,228.3,0,235.9v40.5
				c0,7.6,2.8,14.5,7.5,19.7C2.8,301.4,0,308.3,0,315.8v40.5C0,372.7,13.3,386,29.7,386h452.5c16.4,0,29.7-13.3,29.7-29.7v-40.5
				c0-7.6-2.8-14.5-7.5-19.7c4.7-5.3,7.5-12.2,7.5-19.7V236c0-7.6-2.8-14.5-7.5-19.7c4.7-5.3,7.5-12.2,7.5-19.7V156.2z M491.9,356.4
				c0.1,5.3-4.3,9.7-9.6,9.7H29.7c-5.4,0-9.7-4.4-9.7-9.7v-40.5c0-5.4,4.4-9.7,9.7-9.7h452.5c5.4,0,9.7,4.4,9.7,9.7V356.4z
				 M491.9,276.5c0.1,5.3-4.3,9.7-9.6,9.7H29.7c-5.4,0-9.7-4.4-9.7-9.7V236c0-5.4,4.4-9.7,9.7-9.7h452.5c5.4,0,9.7,4.4,9.7,9.7
				V276.5z M491.9,196.5c0.1,5.3-4.3,9.7-9.6,9.7H29.7c-5.4,0-9.7-4.4-9.7-9.7v-40.5c0-5.4,4.4-9.7,9.7-9.7h452.5
				c5.4,0,9.7,4.4,9.7,9.7V196.5z"/>
			<path class="st0" d="M61,166.2c-5.5,0-10,4.5-10,10s4.5,10,10,10s10-4.5,10-10S66.5,166.2,61,166.2z"/>
			<path class="st0" d="M61,246.2c-5.5,0-10,4.5-10,10s4.5,10,10,10s10-4.5,10-10S66.5,246.2,61,246.2z"/>
			<path class="st0" d="M61,326.1c-5.5,0-10,4.5-10,10s4.5,10,10,10s10-4.5,10-10S66.5,326.1,61,326.1z"/>
			<path class="st0" d="M451,166.2c-5.5,0-10,4.5-10,10s4.5,10,10,10s10-4.5,10-10S456.5,166.2,451,166.2z"/>
			<path class="st0" d="M451,246.2c-5.5,0-10,4.5-10,10s4.5,10,10,10s10-4.5,10-10S456.5,246.2,451,246.2z"/>
			<path class="st0" d="M451,326.1c-5.5,0-10,4.5-10,10s4.5,10,10,10s10-4.5,10-10S456.5,326.1,451,326.1z"/>
		</g>
	</g>
</g>
</svg>
